<svg width="203" height="207" viewBox="0 0 203 207" fill="none" xmlns="http://www.w3.org/2000/svg">
<g filter="url(#filter0_di)">
<path d="M4 4L199 4V199H4L4 4Z" fill="#A0EBFD"/>
</g>
<g filter="url(#filter1_d)">
<path d="M19 18H184V183H19V18Z" fill="#A0EBFD"/>
</g>
<g filter="url(#filter2_b)">
<path d="M35.9258 90V64.4062H43.8008C46.0508 64.4062 48.0605 64.916 49.8301 65.9355C51.6113 66.9434 53 68.3848 53.9961 70.2598C54.9922 72.123 55.4902 74.2441 55.4902 76.623V77.8008C55.4902 80.1797 54.998 82.2949 54.0137 84.1465C53.041 85.998 51.6641 87.4336 49.8828 88.4531C48.1016 89.4727 46.0918 89.9883 43.8535 90H35.9258ZM41.1992 68.6777V85.7637H43.748C45.8105 85.7637 47.3867 85.0898 48.4766 83.7422C49.5664 82.3945 50.123 80.4668 50.1465 77.959V76.6055C50.1465 74.0039 49.6074 72.0352 48.5293 70.6992C47.4512 69.3516 45.875 68.6777 43.8008 68.6777H41.1992ZM80.3633 77.7832C80.3633 80.3027 79.918 82.5117 79.0273 84.4102C78.1367 86.3086 76.8594 87.7734 75.1953 88.8047C73.543 89.8359 71.6445 90.3516 69.5 90.3516C67.3789 90.3516 65.4863 89.8418 63.8223 88.8223C62.1582 87.8027 60.8691 86.3496 59.9551 84.4629C59.041 82.5645 58.5781 80.3848 58.5664 77.9238V76.6582C58.5664 74.1387 59.0176 71.9238 59.9199 70.0137C60.834 68.0918 62.1172 66.6211 63.7695 65.6016C65.4336 64.5703 67.332 64.0547 69.4648 64.0547C71.5977 64.0547 73.4902 64.5703 75.1426 65.6016C76.8066 66.6211 78.0898 68.0918 78.9922 70.0137C79.9062 71.9238 80.3633 74.1328 80.3633 76.6406V77.7832ZM75.0195 76.623C75.0195 73.9395 74.5391 71.9004 73.5781 70.5059C72.6172 69.1113 71.2461 68.4141 69.4648 68.4141C67.6953 68.4141 66.3301 69.1055 65.3691 70.4883C64.4082 71.8594 63.9219 73.875 63.9102 76.5352V77.7832C63.9102 80.3965 64.3906 82.4238 65.3516 83.8652C66.3125 85.3066 67.6953 86.0273 69.5 86.0273C71.2695 86.0273 72.6289 85.3359 73.5781 83.9531C74.5273 82.5586 75.0078 80.5312 75.0195 77.8711V76.623ZM103.566 64.4062V81.2637C103.566 84.0645 102.688 86.2793 100.93 87.9082C99.1836 89.5371 96.793 90.3516 93.7578 90.3516C90.7695 90.3516 88.3965 89.5605 86.6387 87.9785C84.8809 86.3965 83.9844 84.2227 83.9492 81.457V64.4062H89.2227V81.2988C89.2227 82.9746 89.6211 84.1992 90.418 84.9727C91.2266 85.7344 92.3398 86.1152 93.7578 86.1152C96.7227 86.1152 98.2285 84.5566 98.2754 81.4395V64.4062H103.566ZM107.891 90V64.4062H116.855C119.961 64.4062 122.316 65.0039 123.922 66.1992C125.527 67.3828 126.33 69.123 126.33 71.4199C126.33 72.6738 126.008 73.7812 125.363 74.7422C124.719 75.6914 123.822 76.3887 122.674 76.834C123.986 77.1621 125.018 77.8242 125.768 78.8203C126.529 79.8164 126.91 81.0352 126.91 82.4766C126.91 84.9375 126.125 86.8008 124.555 88.0664C122.984 89.332 120.746 89.9766 117.84 90H107.891ZM113.164 78.8555V85.7637H117.682C118.924 85.7637 119.891 85.4707 120.582 84.8848C121.285 84.2871 121.637 83.4668 121.637 82.4238C121.637 80.0801 120.424 78.8906 117.998 78.8555H113.164ZM113.164 75.1289H117.066C119.727 75.082 121.057 74.0215 121.057 71.9473C121.057 70.7871 120.717 69.9551 120.037 69.4512C119.369 68.9355 118.309 68.6777 116.855 68.6777H113.164V75.1289ZM136.156 85.7637H147.354V90H130.883V64.4062H136.156V85.7637ZM165.793 78.9082H155.668V85.7637H167.551V90H150.395V64.4062H167.516V68.6777H155.668V74.7773H165.793V78.9082ZM44.4512 127.764H55.6484V132H39.1777V106.406H44.4512V127.764ZM74.0879 120.908H63.9629V127.764H75.8457V132H58.6895V106.406H75.8105V110.678H63.9629V116.777H74.0879V120.908ZM98.5566 110.678H90.7168V132H85.4434V110.678H77.709V106.406H98.5566V110.678ZM121.127 110.678H113.287V132H108.014V110.678H100.279V106.406H121.127V110.678ZM139.549 120.908H129.424V127.764H141.307V132H124.15V106.406H141.271V110.678H129.424V116.777H139.549V120.908ZM153.875 122.631H149.674V132H144.4V106.406H153.91C156.934 106.406 159.266 107.08 160.906 108.428C162.547 109.775 163.367 111.68 163.367 114.141C163.367 115.887 162.986 117.346 162.225 118.518C161.475 119.678 160.332 120.604 158.797 121.295L164.334 131.754V132H158.674L153.875 122.631ZM149.674 118.359H153.928C155.252 118.359 156.277 118.025 157.004 117.357C157.73 116.678 158.094 115.746 158.094 114.562C158.094 113.355 157.748 112.406 157.057 111.715C156.377 111.023 155.328 110.678 153.91 110.678H149.674V118.359Z" fill="black"/>
</g>
<defs>
<filter id="filter0_di" x="0" y="0" width="203" height="207" filterUnits="userSpaceOnUse" color-interpolation-filters="sRGB">
<feFlood flood-opacity="0" result="BackgroundImageFix"/>
<feColorMatrix in="SourceAlpha" type="matrix" values="0 0 0 0 0 0 0 0 0 0 0 0 0 0 0 0 0 0 127 0"/>
<feOffset dy="4"/>
<feGaussianBlur stdDeviation="2"/>
<feColorMatrix type="matrix" values="0 0 0 0 0 0 0 0 0 0 0 0 0 0 0 0 0 0 0.25 0"/>
<feBlend mode="normal" in2="BackgroundImageFix" result="effect1_dropShadow"/>
<feBlend mode="normal" in="SourceGraphic" in2="effect1_dropShadow" result="shape"/>
<feColorMatrix in="SourceAlpha" type="matrix" values="0 0 0 0 0 0 0 0 0 0 0 0 0 0 0 0 0 0 127 0" result="hardAlpha"/>
<feOffset dx="-4" dy="-4"/>
<feGaussianBlur stdDeviation="10.5"/>
<feComposite in2="hardAlpha" operator="arithmetic" k2="-1" k3="1"/>
<feColorMatrix type="matrix" values="0 0 0 0 0 0 0 0 0 0 0 0 0 0 0 0 0 0 0.25 0"/>
<feBlend mode="normal" in2="shape" result="effect2_innerShadow"/>
</filter>
<filter id="filter1_d" x="1" y="0" width="201" height="201" filterUnits="userSpaceOnUse" color-interpolation-filters="sRGB">
<feFlood flood-opacity="0" result="BackgroundImageFix"/>
<feColorMatrix in="SourceAlpha" type="matrix" values="0 0 0 0 0 0 0 0 0 0 0 0 0 0 0 0 0 0 127 0"/>
<feOffset/>
<feGaussianBlur stdDeviation="9"/>
<feColorMatrix type="matrix" values="0 0 0 0 0 0 0 0 0 0 0 0 0 0 0 0 0 0 0.25 0"/>
<feBlend mode="normal" in2="BackgroundImageFix" result="effect1_dropShadow"/>
<feBlend mode="normal" in="SourceGraphic" in2="effect1_dropShadow" result="shape"/>
</filter>
<filter id="filter2_b" x="31.9258" y="60.0547" width="139.625" height="75.9453" filterUnits="userSpaceOnUse" color-interpolation-filters="sRGB">
<feFlood flood-opacity="0" result="BackgroundImageFix"/>
<feGaussianBlur in="BackgroundImage" stdDeviation="2"/>
<feComposite in2="SourceAlpha" operator="in" result="effect1_backgroundBlur"/>
<feBlend mode="normal" in="SourceGraphic" in2="effect1_backgroundBlur" result="shape"/>
</filter>
</defs>
</svg>