<svg width="203" height="207" viewBox="0 0 203 207" fill="none" xmlns="http://www.w3.org/2000/svg">
<g filter="url(#filter0_di)">
<path d="M4 4L199 4V199H4L4 4Z" fill="#60D4F9"/>
</g>
<g filter="url(#filter1_d)">
<path d="M19 18H184V183H19V18Z" fill="#60D4F9"/>
</g>
<g filter="url(#filter2_b)">
<path d="M51.5352 68.6777H43.6953V90H38.4219V68.6777H30.6875V64.4062H51.5352V68.6777ZM64.0332 80.6309H59.832V90H54.5586V64.4062H64.0684C67.0918 64.4062 69.4238 65.0801 71.0645 66.4277C72.7051 67.7754 73.5254 69.6797 73.5254 72.1406C73.5254 73.8867 73.1445 75.3457 72.3828 76.5176C71.6328 77.6777 70.4902 78.6035 68.9551 79.2949L74.4922 89.7539V90H68.832L64.0332 80.6309ZM59.832 76.3594H64.0859C65.4102 76.3594 66.4355 76.0254 67.1621 75.3574C67.8887 74.6777 68.252 73.7461 68.252 72.5625C68.252 71.3555 67.9062 70.4062 67.2148 69.7148C66.5352 69.0234 65.4863 68.6777 64.0684 68.6777H59.832V76.3594ZM83.1582 90H77.8848V64.4062H83.1582V90ZM93.3359 80.9824V90H88.0625V64.4062H98.0469C99.9688 64.4062 101.656 64.7578 103.109 65.4609C104.574 66.1641 105.699 67.166 106.484 68.4668C107.27 69.7559 107.662 71.2266 107.662 72.8789C107.662 75.3867 106.801 77.3672 105.078 78.8203C103.367 80.2617 100.994 80.9824 97.959 80.9824H93.3359ZM93.3359 76.7109H98.0469C99.4414 76.7109 100.502 76.3828 101.229 75.7266C101.967 75.0703 102.336 74.1328 102.336 72.9141C102.336 71.6602 101.967 70.6465 101.229 69.873C100.49 69.0996 99.4707 68.7012 98.1699 68.6777H93.3359V76.7109ZM116.574 80.9824V90H111.301V64.4062H121.285C123.207 64.4062 124.895 64.7578 126.348 65.4609C127.812 66.1641 128.938 67.166 129.723 68.4668C130.508 69.7559 130.9 71.2266 130.9 72.8789C130.9 75.3867 130.039 77.3672 128.316 78.8203C126.605 80.2617 124.232 80.9824 121.197 80.9824H116.574ZM116.574 76.7109H121.285C122.68 76.7109 123.74 76.3828 124.467 75.7266C125.205 75.0703 125.574 74.1328 125.574 72.9141C125.574 71.6602 125.205 70.6465 124.467 69.873C123.729 69.0996 122.709 68.7012 121.408 68.6777H116.574V76.7109ZM139.812 85.7637H151.01V90H134.539V64.4062H139.812V85.7637ZM169.449 78.9082H159.324V85.7637H171.207V90H154.051V64.4062H171.172V68.6777H159.324V74.7773H169.449V78.9082ZM44.4512 127.764H55.6484V132H39.1777V106.406H44.4512V127.764ZM74.0879 120.908H63.9629V127.764H75.8457V132H58.6895V106.406H75.8105V110.678H63.9629V116.777H74.0879V120.908ZM98.5566 110.678H90.7168V132H85.4434V110.678H77.709V106.406H98.5566V110.678ZM121.127 110.678H113.287V132H108.014V110.678H100.279V106.406H121.127V110.678ZM139.549 120.908H129.424V127.764H141.307V132H124.15V106.406H141.271V110.678H129.424V116.777H139.549V120.908ZM153.875 122.631H149.674V132H144.4V106.406H153.91C156.934 106.406 159.266 107.08 160.906 108.428C162.547 109.775 163.367 111.68 163.367 114.141C163.367 115.887 162.986 117.346 162.225 118.518C161.475 119.678 160.332 120.604 158.797 121.295L164.334 131.754V132H158.674L153.875 122.631ZM149.674 118.359H153.928C155.252 118.359 156.277 118.025 157.004 117.357C157.73 116.678 158.094 115.746 158.094 114.562C158.094 113.355 157.748 112.406 157.057 111.715C156.377 111.023 155.328 110.678 153.91 110.678H149.674V118.359Z" fill="black"/>
</g>
<defs>
<filter id="filter0_di" x="0" y="0" width="203" height="207" filterUnits="userSpaceOnUse" color-interpolation-filters="sRGB">
<feFlood flood-opacity="0" result="BackgroundImageFix"/>
<feColorMatrix in="SourceAlpha" type="matrix" values="0 0 0 0 0 0 0 0 0 0 0 0 0 0 0 0 0 0 127 0"/>
<feOffset dy="4"/>
<feGaussianBlur stdDeviation="2"/>
<feColorMatrix type="matrix" values="0 0 0 0 0 0 0 0 0 0 0 0 0 0 0 0 0 0 0.25 0"/>
<feBlend mode="normal" in2="BackgroundImageFix" result="effect1_dropShadow"/>
<feBlend mode="normal" in="SourceGraphic" in2="effect1_dropShadow" result="shape"/>
<feColorMatrix in="SourceAlpha" type="matrix" values="0 0 0 0 0 0 0 0 0 0 0 0 0 0 0 0 0 0 127 0" result="hardAlpha"/>
<feOffset dx="-4" dy="-4"/>
<feGaussianBlur stdDeviation="10.5"/>
<feComposite in2="hardAlpha" operator="arithmetic" k2="-1" k3="1"/>
<feColorMatrix type="matrix" values="0 0 0 0 0 0 0 0 0 0 0 0 0 0 0 0 0 0 0.25 0"/>
<feBlend mode="normal" in2="shape" result="effect2_innerShadow"/>
</filter>
<filter id="filter1_d" x="1" y="0" width="201" height="201" filterUnits="userSpaceOnUse" color-interpolation-filters="sRGB">
<feFlood flood-opacity="0" result="BackgroundImageFix"/>
<feColorMatrix in="SourceAlpha" type="matrix" values="0 0 0 0 0 0 0 0 0 0 0 0 0 0 0 0 0 0 127 0"/>
<feOffset/>
<feGaussianBlur stdDeviation="9"/>
<feColorMatrix type="matrix" values="0 0 0 0 0 0 0 0 0 0 0 0 0 0 0 0 0 0 0.25 0"/>
<feBlend mode="normal" in2="BackgroundImageFix" result="effect1_dropShadow"/>
<feBlend mode="normal" in="SourceGraphic" in2="effect1_dropShadow" result="shape"/>
</filter>
<filter id="filter2_b" x="26.6875" y="60.4062" width="148.52" height="75.5938" filterUnits="userSpaceOnUse" color-interpolation-filters="sRGB">
<feFlood flood-opacity="0" result="BackgroundImageFix"/>
<feGaussianBlur in="BackgroundImage" stdDeviation="2"/>
<feComposite in2="SourceAlpha" operator="in" result="effect1_backgroundBlur"/>
<feBlend mode="normal" in="SourceGraphic" in2="effect1_backgroundBlur" result="shape"/>
</filter>
</defs>
</svg>