<svg width="203" height="207" viewBox="0 0 203 207" fill="none" xmlns="http://www.w3.org/2000/svg">
<g filter="url(#filter0_di)">
<path d="M4 4L199 4V199H4L4 4Z" fill="#FD3230"/>
</g>
<g filter="url(#filter1_d)">
<path d="M19 18H184V183H19V18Z" fill="#FD3230"/>
</g>
<g filter="url(#filter2_b)">
<path d="M51.5352 68.6777H43.6953V90H38.4219V68.6777H30.6875V64.4062H51.5352V68.6777ZM64.0332 80.6309H59.832V90H54.5586V64.4062H64.0684C67.0918 64.4062 69.4238 65.0801 71.0645 66.4277C72.7051 67.7754 73.5254 69.6797 73.5254 72.1406C73.5254 73.8867 73.1445 75.3457 72.3828 76.5176C71.6328 77.6777 70.4902 78.6035 68.9551 79.2949L74.4922 89.7539V90H68.832L64.0332 80.6309ZM59.832 76.3594H64.0859C65.4102 76.3594 66.4355 76.0254 67.1621 75.3574C67.8887 74.6777 68.252 73.7461 68.252 72.5625C68.252 71.3555 67.9062 70.4062 67.2148 69.7148C66.5352 69.0234 65.4863 68.6777 64.0684 68.6777H59.832V76.3594ZM83.1582 90H77.8848V64.4062H83.1582V90ZM93.3359 80.9824V90H88.0625V64.4062H98.0469C99.9688 64.4062 101.656 64.7578 103.109 65.4609C104.574 66.1641 105.699 67.166 106.484 68.4668C107.27 69.7559 107.662 71.2266 107.662 72.8789C107.662 75.3867 106.801 77.3672 105.078 78.8203C103.367 80.2617 100.994 80.9824 97.959 80.9824H93.3359ZM93.3359 76.7109H98.0469C99.4414 76.7109 100.502 76.3828 101.229 75.7266C101.967 75.0703 102.336 74.1328 102.336 72.9141C102.336 71.6602 101.967 70.6465 101.229 69.873C100.49 69.0996 99.4707 68.7012 98.1699 68.6777H93.3359V76.7109ZM116.574 80.9824V90H111.301V64.4062H121.285C123.207 64.4062 124.895 64.7578 126.348 65.4609C127.812 66.1641 128.938 67.166 129.723 68.4668C130.508 69.7559 130.9 71.2266 130.9 72.8789C130.9 75.3867 130.039 77.3672 128.316 78.8203C126.605 80.2617 124.232 80.9824 121.197 80.9824H116.574ZM116.574 76.7109H121.285C122.68 76.7109 123.74 76.3828 124.467 75.7266C125.205 75.0703 125.574 74.1328 125.574 72.9141C125.574 71.6602 125.205 70.6465 124.467 69.873C123.729 69.0996 122.709 68.7012 121.408 68.6777H116.574V76.7109ZM139.812 85.7637H151.01V90H134.539V64.4062H139.812V85.7637ZM169.449 78.9082H159.324V85.7637H171.207V90H154.051V64.4062H171.172V68.6777H159.324V74.7773H169.449V78.9082ZM71.8379 124.617L75.2832 106.406H80.5391L74.8613 132H69.5527L65.3867 114.879L61.2207 132H55.9121L50.2344 106.406H55.4902L58.9531 124.582L63.1719 106.406H67.6367L71.8379 124.617ZM104.428 119.783C104.428 122.303 103.982 124.512 103.092 126.41C102.201 128.309 100.924 129.773 99.2598 130.805C97.6074 131.836 95.709 132.352 93.5645 132.352C91.4434 132.352 89.5508 131.842 87.8867 130.822C86.2227 129.803 84.9336 128.35 84.0195 126.463C83.1055 124.564 82.6426 122.385 82.6309 119.924V118.658C82.6309 116.139 83.082 113.924 83.9844 112.014C84.8984 110.092 86.1816 108.621 87.834 107.602C89.498 106.57 91.3965 106.055 93.5293 106.055C95.6621 106.055 97.5547 106.57 99.207 107.602C100.871 108.621 102.154 110.092 103.057 112.014C103.971 113.924 104.428 116.133 104.428 118.641V119.783ZM99.084 118.623C99.084 115.939 98.6035 113.9 97.6426 112.506C96.6816 111.111 95.3105 110.414 93.5293 110.414C91.7598 110.414 90.3945 111.105 89.4336 112.488C88.4727 113.859 87.9863 115.875 87.9746 118.535V119.783C87.9746 122.396 88.4551 124.424 89.416 125.865C90.377 127.307 91.7598 128.027 93.5645 128.027C95.334 128.027 96.6934 127.336 97.6426 125.953C98.5918 124.559 99.0723 122.531 99.084 119.871V118.623ZM117.734 122.631H113.533V132H108.26V106.406H117.77C120.793 106.406 123.125 107.08 124.766 108.428C126.406 109.775 127.227 111.68 127.227 114.141C127.227 115.887 126.846 117.346 126.084 118.518C125.334 119.678 124.191 120.604 122.656 121.295L128.193 131.754V132H122.533L117.734 122.631ZM113.533 118.359H117.787C119.111 118.359 120.137 118.025 120.863 117.357C121.59 116.678 121.953 115.746 121.953 114.562C121.953 113.355 121.607 112.406 120.916 111.715C120.236 111.023 119.188 110.678 117.77 110.678H113.533V118.359ZM131.252 132V106.406H139.127C141.377 106.406 143.387 106.916 145.156 107.936C146.938 108.943 148.326 110.385 149.322 112.26C150.318 114.123 150.816 116.244 150.816 118.623V119.801C150.816 122.18 150.324 124.295 149.34 126.146C148.367 127.998 146.99 129.434 145.209 130.453C143.428 131.473 141.418 131.988 139.18 132H131.252ZM136.525 110.678V127.764H139.074C141.137 127.764 142.713 127.09 143.803 125.742C144.893 124.395 145.449 122.467 145.473 119.959V118.605C145.473 116.004 144.934 114.035 143.855 112.699C142.777 111.352 141.201 110.678 139.127 110.678H136.525Z" fill="black"/>
</g>
<defs>
<filter id="filter0_di" x="0" y="0" width="203" height="207" filterUnits="userSpaceOnUse" color-interpolation-filters="sRGB">
<feFlood flood-opacity="0" result="BackgroundImageFix"/>
<feColorMatrix in="SourceAlpha" type="matrix" values="0 0 0 0 0 0 0 0 0 0 0 0 0 0 0 0 0 0 127 0"/>
<feOffset dy="4"/>
<feGaussianBlur stdDeviation="2"/>
<feColorMatrix type="matrix" values="0 0 0 0 0 0 0 0 0 0 0 0 0 0 0 0 0 0 0.25 0"/>
<feBlend mode="normal" in2="BackgroundImageFix" result="effect1_dropShadow"/>
<feBlend mode="normal" in="SourceGraphic" in2="effect1_dropShadow" result="shape"/>
<feColorMatrix in="SourceAlpha" type="matrix" values="0 0 0 0 0 0 0 0 0 0 0 0 0 0 0 0 0 0 127 0" result="hardAlpha"/>
<feOffset dx="-4" dy="-4"/>
<feGaussianBlur stdDeviation="10.5"/>
<feComposite in2="hardAlpha" operator="arithmetic" k2="-1" k3="1"/>
<feColorMatrix type="matrix" values="0 0 0 0 0 0 0 0 0 0 0 0 0 0 0 0 0 0 0.25 0"/>
<feBlend mode="normal" in2="shape" result="effect2_innerShadow"/>
</filter>
<filter id="filter1_d" x="1" y="0" width="201" height="201" filterUnits="userSpaceOnUse" color-interpolation-filters="sRGB">
<feFlood flood-opacity="0" result="BackgroundImageFix"/>
<feColorMatrix in="SourceAlpha" type="matrix" values="0 0 0 0 0 0 0 0 0 0 0 0 0 0 0 0 0 0 127 0"/>
<feOffset/>
<feGaussianBlur stdDeviation="9"/>
<feColorMatrix type="matrix" values="0 0 0 0 0 0 0 0 0 0 0 0 0 0 0 0 0 0 0.25 0"/>
<feBlend mode="normal" in2="BackgroundImageFix" result="effect1_dropShadow"/>
<feBlend mode="normal" in="SourceGraphic" in2="effect1_dropShadow" result="shape"/>
</filter>
<filter id="filter2_b" x="26.6875" y="60.4062" width="148.52" height="75.9453" filterUnits="userSpaceOnUse" color-interpolation-filters="sRGB">
<feFlood flood-opacity="0" result="BackgroundImageFix"/>
<feGaussianBlur in="BackgroundImage" stdDeviation="2"/>
<feComposite in2="SourceAlpha" operator="in" result="effect1_backgroundBlur"/>
<feBlend mode="normal" in="SourceGraphic" in2="effect1_backgroundBlur" result="shape"/>
</filter>
</defs>
</svg>


